<?xml version="1.0" encoding="UTF-8" standalone="no"?><!DOCTYPE svg PUBLIC "-//W3C//DTD SVG 1.1//EN" "http://www.w3.org/Graphics/SVG/1.1/DTD/svg11.dtd"><svg width="100%" height="100%" viewBox="0 0 1638 1638" version="1.1" xmlns="http://www.w3.org/2000/svg" xmlns:xlink="http://www.w3.org/1999/xlink" xml:space="preserve" xmlns:serif="http://www.serif.com/" style="fill-rule:evenodd;clip-rule:evenodd;stroke-linejoin:round;stroke-miterlimit:2;"><path d="M1055.54,1558.5c-64.832,21.067 -128.758,40.776 -195.771,43.483c-132.41,5.349 -263.792,-0.33 -389.142,-50.326c-99.731,-39.777 -174.814,-109.509 -232.387,-198.13c-84.954,-130.771 -147.456,-271.71 -183.897,-423.763c-16.757,-69.922 -13.294,-140.594 -7.909,-211.284c8.34,-109.483 30.702,-215.945 78.934,-315.02c21.416,-43.992 50.704,-84.151 76.934,-127.281c32.345,-31.149 64.173,-61.066 97.911,-92.353c4.22,-3.322 6.53,-5.274 8.84,-7.226c176.75,-115.007 373.199,-150.099 579.22,-134.833c232.446,17.225 409.233,134.336 539.099,323.552c71.701,104.468 128.718,217.185 161.358,340.767c18.54,70.198 18.459,141.502 10.588,212.913c-12.87,116.756 -46.839,226.265 -112.408,325.117c-70.062,105.625 -164.482,183.617 -275.086,242.438c-50.1,26.643 -103.192,47.658 -156.284,71.946m48.22,-989.955c-0.206,-3.939 -0.412,-7.877 -1.1,-14.844c-5.366,-9.43 -8.396,-22.837 -16.504,-27.597c-34.122,-20.035 -69.854,-18.156 -104.485,-0.016c-15.616,8.18 -20.588,20.981 -11.221,38.549c-0,0 0.01,1.219 -1.626,3.961c-1.957,7.647 -7.329,16.431 5.688,22.138c-3.959,5.286 -7.918,10.573 -11.996,16.017c-69.589,-9.449 -139.893,-10.499 -210.328,-2.296c-12.453,1.45 -24.191,2.825 -17.776,18.692l218.361,-0c10.952,-4.858 16.524,-7.329 18.494,-7.037c-1.565,3.279 -3.129,6.559 -4.461,9.349c23.531,-1.94 45.978,-5.224 68.426,-5.235c22.139,-0.012 44.281,3.29 67.09,5.193c0,-5.758 0,-11.632 0.244,-20.956c-0.165,-5.631 -0.33,-11.261 -0.128,-19.913c0.203,-4.034 0.406,-8.068 1.322,-16.005m-546.995,300.871c5.068,3.138 13.807,5.582 14.554,9.536c2.914,15.415 3.158,31.321 4.674,47.018c0.778,8.05 2.144,16.044 3.244,24.063c3.062,-0.384 6.125,-0.767 9.187,-1.151c-2.856,-26.003 -3.76,-52.431 -9.288,-77.853c-3.421,-15.738 -15.942,-16.383 -31.33,-2.568c-2.981,4.874 -5.962,9.749 -9.303,15.214c-15.821,-23.915 -17.242,-24.255 -37.955,-12.219c-0.827,-0.75 -1.655,-1.501 -3.047,-5.119c-0.915,-2.802 -1.83,-5.605 -2.745,-8.407c-8.881,30.561 -10.322,60.324 2.305,89.645c4.945,-24.549 9.889,-49.099 14.833,-73.648c26.795,20.41 11.389,49.663 23.834,74.735c6.897,-28.506 12.802,-52.909 21.037,-79.246m168.517,-327.964c4.193,3.719 8.386,7.437 12.247,10.86c74.7,-19.111 149.114,-18.351 223.429,0.527c6.401,-17.461 -6.273,-19.379 -16.864,-21.796c-72.746,-16.597 -145.03,-14.295 -216.563,2.365c-2.291,-9.79 -4.582,-19.58 -3.83,-30.095c8.461,-24.34 4.524,-37.309 -17.464,-48.942c-11.427,-6.045 -24.138,-10.556 -36.803,-13.2c-41.747,-8.716 -81.11,-3.033 -115.231,24.366c-13.644,10.956 -12.108,28.245 3.596,37.423c-11.062,9.212 -14.495,20.659 -8.188,37.647c-1.249,8.4 -2.498,16.799 -3.995,26.866c61.4,-23.556 120.517,-22.221 184.605,-0.671c-3.872,-10.056 -6.289,-16.336 -4.939,-25.35m15.493,-92.707c-3.387,10.83 -6.774,21.661 -10.162,32.491c1.704,1.277 3.407,2.554 5.111,3.831c34.654,-22.558 73.235,-27.808 112.878,-28.238c39.547,-0.428 77.353,7.197 116.586,23.771c-3.677,-13.019 -7.354,-26.037 -8.201,-38.648c1.683,-0.302 4.703,-0.293 4.856,-0.951c6.699,-28.763 1.28,-43.529 -24.024,-58.772c-11.662,-7.024 -24.67,-12.631 -37.792,-16.269c-54.97,-15.241 -107.116,-8.655 -154.584,24.133c-16.494,11.393 -17.797,44.661 -4.668,58.652m-221.024,753.486c23.707,58.464 80.284,70.833 118.185,25.289c9.16,-11.008 16.797,-23.775 22.829,-36.8c16.205,-34.996 18.985,-71.684 8.232,-109.411c19.191,-6.861 36.901,-12.499 53.906,-19.781c4.029,-1.725 5.697,-8.965 8.451,-13.668c-5.159,-1.89 -10.248,-4.996 -15.498,-5.299c-4.479,-0.258 -9.187,2.59 -13.719,4.264c-23.834,8.805 -47.873,21.108 -68.047,-7.159c-2.06,-2.886 -7.196,-4.059 -11.15,-5.034c-29.892,-7.368 -53.944,4.837 -72.135,26.426c-33.772,40.079 -43.969,86.881 -31.054,141.173m-95.123,73.507c4.744,2.805 9.487,5.609 14.231,8.413c2.226,-5.237 6.259,-10.429 6.393,-15.72c1.051,-41.621 1.217,-83.264 1.937,-124.895c0.588,-33.972 2.088,-67.94 1.84,-101.9c-0.04,-5.528 -7.057,-11.005 -10.849,-16.506c-3.437,5.566 -7.4,10.893 -10.085,16.801c-1.308,2.878 -0.232,6.84 -0.232,10.312c-0,36.447 -0,72.894 -0,108.816c-31.274,2.067 -56.561,3.739 -82.972,5.484c-0.206,-4.499 -0.647,-7.154 -0.399,-9.743c3.633,-37.916 7.791,-75.792 10.599,-113.768c0.425,-5.75 -5.328,-11.957 -8.223,-17.952c-4.092,4.508 -11.297,8.697 -11.795,13.572c-5.214,50.965 -10.782,101.973 -13.157,153.113c-1.111,23.923 3.843,48.267 7.695,72.155c0.729,4.523 9.212,7.796 14.116,11.646c2.4,-5.124 6.44,-10.14 6.785,-15.399c0.437,-6.674 -2.295,-13.518 -3.368,-20.335c-7.846,-49.851 -7.824,-49.868 41.519,-53.982c6.203,-0.518 12.444,-0.608 18.636,-1.225c12.999,-1.295 16.825,5.071 16.559,17.257c-0.514,23.517 0.032,47.058 0.77,73.856m609.237,-235.333c-2.189,12.907 -5.967,25.774 -6.296,38.729c-1.473,58.032 -2.478,116.091 -2.18,174.133c0.039,7.515 9.534,21.868 13.141,21.401c32.574,-4.215 64.877,-10.724 97.032,-17.621c2.802,-0.601 6.459,-9.674 5.186,-13.156c-1.163,-3.183 -8.566,-5.872 -13.053,-5.634c-6.688,0.354 -13.146,3.849 -19.85,5.339c-19.138,4.255 -38.351,8.172 -60.184,12.781c-1.373,-25.552 -2.495,-46.442 -3.613,-67.244c15.684,-3.087 28.896,-4.527 41.22,-8.633c5.619,-1.872 9.486,-9.007 14.148,-13.754c-6.495,-2.364 -13.051,-6.808 -19.472,-6.623c-10.716,0.31 -21.345,3.582 -37.62,6.673c3.722,-36.942 6.614,-70.338 11.087,-103.521c0.504,-3.739 9.743,-8.46 15.272,-8.961c17.209,-1.561 34.647,-0.619 51.852,-2.208c4.799,-0.444 9.099,-6.292 13.628,-9.661c-3.891,-3.979 -7.965,-11.555 -11.644,-11.368c-28.792,1.466 -57.508,4.422 -88.654,9.328m-174.935,-24.715c-18.598,1.694 -37.344,2.492 -55.715,5.548c-6.781,1.128 -12.677,7.574 -18.977,11.594c6.515,3.187 12.964,8.871 19.56,9.048c14.257,0.382 28.59,-2.061 44.31,-3.475c-0.505,6.063 -1.022,10.672 -1.254,15.296c-3.398,67.766 -7.002,135.524 -9.7,203.317c-0.234,5.892 5.555,12.024 8.546,18.044c4.047,-6.008 10.446,-11.592 11.619,-18.117c2.061,-11.452 0.59,-23.497 1.176,-35.264c3.055,-61.404 6.293,-122.8 9.546,-185.72c20.327,-1.002 36.26,-0.74 51.812,-3.049c6.609,-0.981 12.419,-7.349 18.593,-11.268c-5.888,-3.304 -11.742,-9.338 -17.669,-9.411c-19.336,-0.238 -38.7,1.698 -61.847,3.457m-60.993,-297.17l-62.964,-0l-0,29.409l226.083,-0l-0,-29.407c-53.688,0 -106.325,0 -163.119,-0.002m464.564,325.616c0.039,-6.935 1.335,-14.174 -0.244,-20.719c-1.538,-6.383 -6.016,-12.056 -9.203,-18.041c-4.029,6.154 -10.664,11.946 -11.579,18.532c-2.373,17.073 -2.788,34.49 -2.983,51.78c-0.645,57.441 -0.798,114.888 -1.254,172.331c-0.14,17.533 7.094,26.785 25.449,21.962c15.989,-4.202 31.986,-8.841 47.247,-15.077c4.801,-1.961 7.233,-9.719 10.749,-14.824c-5.802,-1.967 -12.123,-6.471 -17.305,-5.41c-13.922,2.848 -27.358,8.075 -41.272,12.447c0,-67.937 0,-133.44 0.395,-202.981m-437.07,-542.94c46.533,-3.199 91.845,2.731 135.767,19.601c1.865,-22.617 2.31,-24.02 -12.743,-28.796c-66.466,-21.091 -133.131,-21.924 -199.853,-0.232c-15.409,5.01 -18.818,14.198 -14.48,25.779c29.577,-5.492 58.558,-10.873 91.309,-16.352m-219.153,248.108l119.782,-0l-0,-26.95l-178.344,0l0,26.949c18.713,-0 36.564,-0 58.562,0.001m274.399,-110.408c-44.899,1.824 -89.82,3.28 -134.667,5.977c-5.092,0.307 -9.764,7.585 -18.246,14.635l233.22,0c-1.652,-7.546 -6.526,-14.494 -12.225,-15.253c-21.215,-2.828 -42.701,-3.624 -68.082,-5.359m68.299,-68.999c-66.078,-12.176 -132.272,-11.073 -198.443,-1.164c-16.418,2.458 -16.304,3.217 -14.925,16.351c37.904,-2.427 75.724,-6.748 113.542,-6.733c37.588,0.015 75.174,4.39 118.993,7.262c-7.576,-7.22 -11.657,-11.11 -19.167,-15.716m-215.621,123.027c3.575,1.889 7.179,5.469 10.719,5.406c35.923,-0.636 71.829,-2.288 107.752,-2.813c36.418,-0.533 72.851,-0.118 109.277,-0.118c-1.901,-6.603 -6.913,-12.639 -11.962,-12.671c-69.051,-0.438 -138.107,-0.126 -207.159,0.414c-2.898,0.023 -5.765,4.078 -8.627,9.782m233.941,49.934c2.266,2.078 4.517,5.947 6.801,5.967c42.12,0.363 84.243,0.266 126.939,0.266l-0,-24.04c-41.819,0 -81.999,-0.401 -122.143,0.618c-4.033,0.102 -7.848,8.804 -11.597,17.189m-245.788,-109.532c-53.903,-0.289 -107.806,-0.661 -161.71,-0.801c-11.59,-0.03 -16.133,5.098 -11.621,15.386c56.119,-0 110.676,-0.449 165.214,0.347c12.119,0.176 18.336,-0.143 8.117,-14.932m-78.689,-67.958c-27.408,2.807 -54.904,5.009 -82.152,8.924c-5.54,0.796 -10.153,8.049 -15.193,12.325c1.368,1.467 2.735,2.934 4.103,4.401c58.874,-15.596 117.921,-14.576 178.445,-2.975c-3.755,-6.432 -8.45,-12.259 -13.994,-13.228c-22.36,-3.906 -44.982,-6.312 -71.209,-9.447m104.798,383.549c3.108,0.016 6.217,0.031 9.325,0.047c-1.145,-25.475 -1.563,-51.022 -4.054,-76.364c-0.495,-5.032 -8.611,-12.476 -13.802,-13.004c-5.276,-0.537 -12.516,5.042 -16.653,9.866c-5.08,5.922 -7.834,13.838 -13.074,23.672c-1.728,-12.249 -2.912,-20.641 -4.096,-29.033c-2.216,0.146 -4.432,0.293 -6.648,0.439c-1.956,28.913 -6.268,57.856 3.805,86.844c14.169,-26.728 9.033,-61.206 34.26,-81.981c3.202,0.439 6.405,0.878 9.607,1.317c0.225,24.875 0.449,49.75 1.33,78.197m-124.629,-289.563c-21.361,1.088 -42.77,1.674 -64.049,3.645c-4.881,0.453 -9.32,5.675 -13.962,8.702c1.096,1.413 2.192,2.827 3.288,4.24l178.818,-0c0.482,-3.124 0.963,-6.247 1.445,-9.371c-32.681,-9.313 -67.274,-6.824 -105.54,-7.216m477.141,235.18c0.501,18.64 1.003,37.279 1.505,55.918c2.419,0.104 4.837,0.207 7.256,0.311c1.405,-4.88 2.786,-9.768 4.219,-14.639c5.073,-17.235 9.467,-34.72 15.642,-51.551c2.05,-5.588 8.695,-9.491 13.239,-14.164c2.979,5.572 7.868,10.92 8.554,16.762c1.611,13.713 1.299,27.659 1.592,41.515c0.178,8.382 0.033,16.771 0.033,25.157c2.352,-0.027 4.705,-0.055 7.057,-0.082c2.8,-28.559 8.335,-57.486 -4.262,-85.508c-6.359,-14.145 -17.63,-11.916 -26.429,-1.421c-5.816,6.937 -9.791,15.419 -15.711,25.027c-1.279,-11.11 -2.244,-19.493 -3.209,-27.877c-2.013,-0.03 -4.026,-0.06 -6.039,-0.09c-1.124,8.929 -2.249,17.859 -3.447,30.642m-428.115,-282.267c18.282,2.041 36.564,4.081 54.846,6.122c-2.116,-7.431 -6.18,-13.132 -11.19,-14.143c-52.868,-10.663 -105.896,-9.886 -158.719,0.406c-4.341,0.846 -7.713,6.663 -12.395,10.959c43.773,-1.251 83.628,-2.391 127.458,-3.344m-40.432,78.035c-22.776,0.606 -45.578,0.765 -68.31,2.113c-6.109,0.362 -12.004,4.34 -17.997,6.658c0.786,1.773 1.572,3.546 2.358,5.318l181.096,0c-10.921,-14.109 -10.921,-14.109 -97.147,-14.089m-244.356,196.069c1.002,13.08 0.56,26.506 3.577,39.103c1.67,6.974 8.737,17.109 14.079,17.567c6.015,0.516 14.565,-7.044 18.884,-13.264c6.442,-9.275 10.145,-20.452 15.014,-30.821c1.218,0.133 2.435,0.265 3.653,0.398l0,42.615c1.565,-0.098 3.129,-0.197 4.693,-0.295l0,-90.656c-16.575,26.947 -15.079,61.192 -38.932,83.369c-2.943,-0.293 -5.887,-0.587 -8.83,-0.88c-1.311,-24.748 -2.621,-49.497 -3.931,-74.245c-1.243,-0.025 -2.487,-0.05 -3.73,-0.075c-1.402,7.813 -2.803,15.627 -4.477,27.184m562.8,61.295c19.397,8.476 34.647,-0.735 34.102,-22.389c-3.361,2.685 -5.69,5.061 -8.468,6.657c-5.514,3.166 -12.577,9.388 -16.588,7.891c-4.506,-1.683 -8.27,-10.289 -8.92,-16.257c-1.105,-10.152 -1.73,-21.372 1.546,-30.702c3.346,-9.53 11.631,-17.325 17.753,-25.88c5.822,6.127 11.644,12.254 17.177,18.077c5.188,-12.469 4.293,-22.472 -6.686,-25.653c-7.716,-2.236 -20.477,0.769 -26.263,6.339c-16.95,16.317 -18.542,54.972 -3.653,81.917m350.059,-79.205c6.087,-0.894 12.174,-1.789 18.261,-2.683c-29.078,-13.242 -37.849,-8.68 -40.639,18.432c-1.273,12.364 -2.304,24.96 -1.325,37.282c0.76,9.555 3.46,26.091 7.66,26.876c11.759,2.197 24.744,-2.163 37.244,-3.935c-0.43,-2.588 -0.86,-5.176 -1.29,-7.763c-10.276,1.376 -20.551,2.752 -31.986,4.283c-0.726,-7.789 -1.346,-14.449 -1.916,-20.563c6.986,-3.404 12.577,-6.127 23.491,-11.445c-11.653,-1.272 -17.163,-1.873 -28.132,-3.07c5.807,-14.324 10.457,-25.792 18.632,-37.414m-238.474,-4.55c-24.871,-12.613 -37.993,-6.209 -39.397,19.859c-0.929,17.239 -1.517,34.588 -0.51,51.785c0.297,5.058 6.644,13.933 10.088,13.87c11.442,-0.207 22.824,-3.687 34.229,-5.911c-0.392,-2.085 -0.784,-4.17 -1.176,-6.255c-10.282,1.189 -20.563,2.378 -32.718,3.784c-0.569,-8.022 -1.034,-14.583 -1.465,-20.678c7.294,-3.302 13.224,-5.986 19.154,-8.67c-0.517,-1.381 -1.034,-2.762 -1.551,-4.143l-18.78,0c0.91,-8.672 1.58,-16.126 2.512,-23.547c0.591,-4.711 1.571,-9.374 2.432,-14.38c8.864,-1.069 17.017,-2.052 27.182,-5.714m142.38,50.243c3.334,-13.194 4.731,-27.324 10.533,-39.325c6.136,-12.688 16.321,-11.092 22.261,1.662c1.447,3.107 2.983,6.173 4.478,9.258c2.356,-1.339 4.712,-2.677 7.068,-4.016c-4.801,-8.122 -8.032,-20.736 -14.839,-23.114c-6.924,-2.418 -20.594,2.661 -25.669,8.984c-15.289,19.048 -15.449,42.779 -9.861,65.191c1.956,7.845 14.218,19.618 19.794,18.613c9.501,-1.712 17.438,-12.11 26.032,-18.859c-1.322,-1.482 -2.644,-2.964 -3.966,-4.445c-27.955,19.295 -31.75,18.189 -35.831,-13.949m-102.446,-245.493c-1.588,-3.282 -3.14,-9.409 -4.77,-9.43c-41.424,-0.533 -82.858,-0.564 -124.283,-0.047c-2.186,0.028 -4.303,5.651 -8.339,11.32c47.767,0 91.202,0 137.392,-1.843m-215.541,243.576c1.862,2.916 4.435,5.607 5.441,8.793c2.278,7.219 3.784,14.681 5.604,22.045c-6.783,-2.546 -13.538,-5.174 -20.381,-7.546c-1.02,-0.354 -2.455,0.493 -5.13,1.12c3.415,14.31 11.784,21.9 26.024,17.453c14.348,-4.481 13.466,-16.771 7.673,-27.205c-6.996,-12.6 -17.244,-23.436 -23.85,-36.192c-2.82,-5.445 -2.522,-17.762 0.868,-19.941c5.161,-3.316 14.273,-0.851 21.642,-0.153c2.356,0.224 4.505,2.633 9.236,5.606c-2.741,-18.421 -11.909,-22.979 -25.116,-19.259c-12.743,3.588 -23.907,10.983 -19.372,26.364c2.815,9.549 10.085,17.784 17.361,28.915m-84.074,-50.195c-1.891,25.885 -4.176,51.755 -5.191,77.675c-0.131,3.352 6.491,10.08 9.664,9.89c11.434,-0.686 22.731,-3.664 34.079,-5.776c-0.412,-2.147 -0.825,-4.293 -1.237,-6.439c-10.422,1.282 -20.843,2.564 -32.564,4.006c-0.851,-7.957 -1.56,-14.582 -2.25,-21.021c7.598,-3.204 13.94,-5.877 20.281,-8.55c-0.214,-1.155 -0.428,-2.31 -0.642,-3.465c-6.265,-0.353 -12.529,-0.705 -20.715,-1.167c1.803,-13.547 3.404,-25.578 4.93,-37.04c10.815,-1.753 19.613,-3.179 28.412,-4.606c-0.145,-2.184 -0.29,-4.369 -0.435,-6.554c-10.404,0.489 -20.808,0.978 -34.332,3.047m221.113,-161.022c-18.933,1.041 -37.867,2.081 -56.8,3.122c0.204,2.482 0.408,4.964 0.612,7.445l135.667,0c0.147,-2.697 0.293,-5.394 0.44,-8.091c-25.267,-0.825 -50.533,-1.65 -79.919,-2.476m-0.116,-12.029l79.737,0c-16.849,-15.499 -124.452,-14.052 -136.537,2.98c18.643,-1.056 35.642,-2.019 56.8,-2.98m-39.112,-43.137l119.178,0c-19.391,-18.668 -120.218,-18.337 -137.211,1.329c5.926,-0.341 10.263,-0.59 18.033,-1.329m-350.885,212.771c-2.237,2.468 -6.864,6.358 -6.365,7.196c16.897,28.387 5.899,57.029 2.266,87.495c9.296,-2.105 19.042,-4.312 33.172,-7.512c-23.771,-10.857 -23.843,-66.612 -3.571,-87.466c-8.491,-0 -15.234,-0 -25.502,0.287m-301.892,62.934l-0,-70.634c-2.308,0.039 -4.616,0.078 -6.924,0.117l0,100.24c11.693,-4.475 20.403,-7.808 29.113,-11.141c0.172,-2.199 0.344,-4.399 0.515,-6.598c-9.433,0.67 -23.884,10.446 -22.704,-11.984Z" style="fill:#2f6f91;fill-rule:nonzero;"/><path d="M308.353,175.461c-1.61,3.088 -3.92,5.04 -7.367,7.199c1.465,-2.64 4.066,-5.488 7.367,-7.199Z" style="fill:#efefef;fill-rule:nonzero;"/><path d="M129.167,29.167c-0.465,-0.541 -0.93,-1.082 -1.395,-1.623c0.32,0.191 0.64,0.383 1.178,1.099c0.217,0.524 0.217,0.524 0.217,0.524Z" style="fill:#f0f0f1;fill-rule:nonzero;"/><path d="M519,1200.74c-12.164,-52.803 -1.967,-99.605 31.805,-139.684c18.191,-21.589 42.243,-33.794 72.135,-26.426c3.954,0.975 9.09,2.148 11.15,5.034c20.174,28.267 44.213,15.964 68.047,7.159c4.532,-1.674 9.24,-4.522 13.719,-4.264c5.25,0.303 10.339,3.409 15.498,5.299c-2.754,4.703 -4.422,11.943 -8.451,13.668c-17.005,7.282 -34.715,12.92 -53.906,19.781c10.753,37.727 7.973,74.415 -8.232,109.411c-6.032,13.025 -13.669,25.792 -22.829,36.8c-37.901,45.544 -94.478,33.175 -118.936,-26.778m17.718,-24.787c0.65,5.504 0.38,11.317 2.112,16.457c6.757,20.051 18.674,36.336 40.495,40.363c20.8,3.839 36.188,-7.406 46.649,-24.315c7.933,-12.825 15.369,-26.382 20.273,-40.565c9.391,-27.159 14.251,-54.903 -0.646,-79.94c-30.487,1.466 -59.082,2.84 -90.325,4.342c-13.893,22.374 -20.826,49.999 -18.558,83.658m84.742,-108.732c1.449,-2.378 4.553,-6.453 4.108,-6.887c-14.105,-13.75 -36.69,-9.571 -49.391,11.393c15.296,-1.435 28.669,-2.69 45.283,-4.506Z" style="fill:#e2e6e8;fill-rule:nonzero;"/><path d="M424.312,1274.1c-0.422,-25.165 -0.968,-48.706 -0.454,-72.223c0.266,-12.186 -3.56,-18.552 -16.559,-17.257c-6.192,0.617 -12.433,0.707 -18.636,1.225c-49.343,4.114 -49.365,4.131 -41.519,53.982c1.073,6.817 3.805,13.661 3.368,20.335c-0.345,5.259 -4.385,10.275 -6.785,15.399c-4.904,-3.85 -13.387,-7.123 -14.116,-11.646c-3.852,-23.888 -8.806,-48.232 -7.695,-72.155c2.375,-51.14 7.943,-102.148 13.157,-153.113c0.498,-4.875 7.703,-9.064 11.795,-13.572c2.895,5.995 8.648,12.202 8.223,17.952c-2.808,37.976 -6.966,75.852 -10.599,113.768c-0.248,2.589 0.193,5.244 0.399,9.743c26.411,-1.745 51.698,-3.417 82.972,-5.484c-0,-35.922 -0,-72.369 0,-108.816c0,-3.472 -1.076,-7.434 0.232,-10.312c2.685,-5.908 6.648,-11.235 10.085,-16.801c3.792,5.501 10.809,10.978 10.849,16.506c0.248,33.96 -1.252,67.928 -1.84,101.9c-0.72,41.631 -0.886,83.274 -1.937,124.895c-0.134,5.291 -4.167,10.483 -6.393,15.72c-4.744,-2.804 -9.487,-5.608 -14.547,-10.046Z" style="fill:#dee3e6;fill-rule:nonzero;"/><path d="M1035.07,1039.2c29.942,-3.701 58.658,-6.657 87.45,-8.123c3.679,-0.187 7.753,7.389 11.644,11.368c-4.529,3.369 -8.829,9.217 -13.628,9.661c-17.205,1.589 -34.643,0.647 -51.852,2.208c-5.529,0.501 -14.768,5.222 -15.272,8.961c-4.473,33.183 -7.365,66.579 -11.087,103.521c16.275,-3.091 26.904,-6.363 37.62,-6.673c6.421,-0.185 12.977,4.259 19.472,6.623c-4.662,4.747 -8.529,11.882 -14.148,13.754c-12.324,4.106 -25.536,5.546 -41.22,8.633c1.118,20.802 2.24,41.692 3.613,67.244c21.833,-4.609 41.046,-8.526 60.184,-12.781c6.704,-1.49 13.162,-4.985 19.85,-5.339c4.487,-0.238 11.89,2.451 13.053,5.634c1.273,3.482 -2.384,12.555 -5.186,13.156c-32.155,6.897 -64.458,13.406 -97.032,17.621c-3.607,0.467 -13.102,-13.886 -13.141,-21.401c-0.298,-58.042 0.707,-116.101 2.18,-174.133c0.329,-12.955 4.107,-25.822 7.5,-39.934Z" style="fill:#dfe4e7;fill-rule:nonzero;"/><path d="M742.019,445.748c-14.373,-10.997 -13.07,-44.265 3.424,-55.658c47.468,-32.788 99.614,-39.374 154.584,-24.133c13.122,3.638 26.13,9.245 37.792,16.269c25.304,15.243 30.723,30.009 24.024,58.772c-0.153,0.658 -3.173,0.649 -6.255,0.841c-1.398,-0.11 -1.217,-0.184 -1.928,-1.714c-4.518,-1.924 -8.324,-2.318 -12.096,-2.621c0.033,0.09 0.221,0.043 1.572,-1.146c-37.109,-40.738 -145.922,-45.965 -201.499,3.33c-1.055,0.936 -0.095,4.143 0.054,6.262c0.129,-0.028 0.328,-0.202 0.328,-0.202Z" style="fill:#e7eaeb;fill-rule:nonzero;"/><path d="M860.827,1015.36c21.25,-1.43 40.614,-3.366 59.95,-3.128c5.927,0.073 11.781,6.107 17.669,9.411c-6.174,3.919 -11.984,10.287 -18.593,11.268c-15.552,2.309 -31.485,2.047 -51.812,3.049c-3.253,62.92 -6.491,124.316 -9.546,185.72c-0.586,11.767 0.885,23.812 -1.176,35.264c-1.173,6.525 -7.572,12.109 -11.619,18.117c-2.991,-6.02 -8.78,-12.152 -8.546,-18.044c2.698,-67.793 6.302,-135.551 9.7,-203.317c0.232,-4.624 0.749,-9.233 1.254,-15.296c-15.72,1.414 -30.053,3.857 -44.31,3.475c-6.596,-0.177 -13.045,-5.861 -19.56,-9.048c6.3,-4.02 12.196,-10.466 18.977,-11.594c18.371,-3.056 37.117,-3.854 57.612,-5.877Z" style="fill:#e3e7e9;fill-rule:nonzero;"/><path d="M954.173,441.635c3.661,12.925 7.338,25.943 11.015,38.962c-39.233,-16.574 -77.039,-24.199 -116.586,-23.771c-39.643,0.43 -78.224,5.68 -112.878,28.238c-1.704,-1.277 -3.407,-2.554 -5.111,-3.831c3.388,-10.83 6.775,-21.661 10.784,-33.988c0.622,-1.497 0.423,-1.323 1.853,-1.382c42.292,-19.519 85.259,-27.32 130.135,-21.263c22.964,3.1 45.61,8.556 68.4,12.947c-0,0 -0.188,0.047 0.207,1.656c4.389,1.889 8.384,2.171 12.379,2.452c0,0 -0.181,0.074 -0.198,-0.02Z" style="fill:#e3e7e9;fill-rule:nonzero;"/><path d="M974.868,613.345c-5.571,2.472 -11.143,4.943 -22.095,9.801l-218.361,-0c-6.415,-15.867 5.323,-17.242 17.776,-18.692c70.435,-8.203 140.739,-7.153 210.328,2.296c4.078,-5.444 8.037,-10.731 12.238,-17.572c0.242,-1.554 0.069,-1.638 1.705,-0.827c40.044,-7.828 78.321,-10.284 116.516,2.333c2.472,0.816 6.18,-2.113 9.297,-3.214c-0.017,0.087 -0.202,0.098 -0.202,0.098c0.166,5.631 0.331,11.261 0.385,18.691c-0.111,1.799 -0.206,1.898 -2.009,1.894c-36.415,-13.214 -71.941,-14.051 -107.716,-6.622c-5.796,1.203 -10.599,7.19 -16.193,10.958c-0.331,-0.008 -1.669,0.856 -1.669,0.856Z" style="fill:#dee3e6;fill-rule:nonzero;"/><path d="M800.016,718.518c54.715,0.001 107.352,0.001 161.04,0.001l-0,29.407l-226.083,-0l-0,-29.409c20.636,-0 41.8,-0 65.043,0.001Z" style="fill:#e3e7e9;fill-rule:nonzero;"/><path d="M1262.3,1046.15c-0.198,67.523 -0.198,133.026 -0.198,200.963c13.914,-4.372 27.35,-9.599 41.272,-12.447c5.182,-1.061 11.503,3.443 17.305,5.41c-3.516,5.105 -5.948,12.863 -10.749,14.824c-15.261,6.236 -31.258,10.875 -47.247,15.077c-18.355,4.823 -25.589,-4.429 -25.449,-21.962c0.456,-57.443 0.609,-114.89 1.254,-172.331c0.195,-17.29 0.61,-34.707 2.983,-51.78c0.915,-6.586 7.55,-12.378 11.579,-18.532c3.187,5.985 7.665,11.658 9.203,18.041c1.579,6.545 0.283,13.784 0.047,22.737Z" style="fill:#e2e6e8;fill-rule:nonzero;"/><path d="M556.009,499.631c-13.914,-5.852 -15.45,-23.141 -1.806,-34.097c34.121,-27.399 73.484,-33.082 115.231,-24.366c12.665,2.644 25.376,7.155 36.803,13.2c21.988,11.633 25.925,24.602 16.019,49.404c-1.445,0.462 -1.193,0.456 -1.684,-0.929c-3.076,-1.913 -5.661,-2.442 -8.191,-2.858c0.054,0.111 0.302,0.11 0.418,-1.454c-42.529,-33.958 -113.476,-32.594 -156.818,1.364c-0.036,-0.086 0.028,-0.264 0.028,-0.264Z" style="fill:#e3e7e9;fill-rule:nonzero;"/><path d="M823.546,501.242c-30.866,5.43 -59.847,10.811 -89.424,16.303c-4.338,-11.581 -0.929,-20.769 14.48,-25.779c66.722,-21.692 133.387,-20.859 199.853,0.232c15.053,4.776 14.608,6.179 12.743,28.796c-43.922,-16.87 -89.234,-22.8 -137.652,-19.552Z" style="fill:#e2e6e8;fill-rule:nonzero;"/><path d="M604.204,749.3c-19.924,-0 -37.775,-0 -56.488,-0l0,-26.949l178.344,0l-0,26.95c-39.944,-0 -79.863,-0 -121.856,-0.001Z" style="fill:#dbe1e5;fill-rule:nonzero;"/><path d="M556.904,501.294c-0.895,-1.663 -0.959,-1.485 0.365,0.16c41.261,-11.95 81.815,-18.196 123.696,-8.626c10.574,2.416 21.146,4.845 31.718,7.267c0,0 -0.248,0.001 0.026,1.38c2.968,1.837 5.661,2.295 8.354,2.753c-0,-0 -0.252,0.006 -0.328,-0.093c2.214,9.69 4.505,19.48 6.795,31.069c-0.001,1.799 -0.264,2.187 -1.731,1.516c-60.551,-29.699 -119.409,-29.195 -178.096,0.69c-0.052,0.015 0.011,-0.048 0.011,-0.048c-4.41,-13.746 -0.977,-25.193 9.19,-36.068Z" style="fill:#dee3e6;fill-rule:nonzero;"/><path d="M727.266,537.391c-0,0 0.263,-0.388 0.158,-0.333c71.64,-20.313 143.924,-22.615 216.67,-6.018c10.591,2.417 23.265,4.335 16.864,21.796c-74.315,-18.878 -148.729,-19.638 -223.429,-0.527c-3.861,-3.423 -8.054,-7.141 -14.005,-9.432c-1.757,1.427 -2.629,0.941 -0.66,1.26c2.78,-2.036 3.591,-4.391 4.402,-6.746Z" style="fill:#dfe4e7;fill-rule:nonzero;"/><path d="M882.675,638.982c23.383,1.646 44.869,2.442 66.084,5.27c5.699,0.759 10.573,7.707 12.225,15.253l-233.22,0c8.482,-7.05 13.154,-14.328 18.246,-14.635c44.847,-2.697 89.768,-4.153 136.665,-5.888Z" style="fill:#dbe1e5;fill-rule:nonzero;"/><path d="M950.69,570.252c5.796,4.248 9.877,8.138 17.453,15.358c-43.819,-2.872 -81.405,-7.247 -118.993,-7.262c-37.818,-0.015 -75.638,4.306 -113.542,6.733c-1.379,-13.134 -1.493,-13.893 14.925,-16.351c66.171,-9.909 132.365,-11.012 200.157,1.522Z" style="fill:#dbe1e5;fill-rule:nonzero;"/><path d="M720.895,543.818c0,-0 0.872,0.486 0.745,0.426c2.292,6.219 4.709,12.499 8.581,22.555c-64.088,-21.55 -123.205,-22.885 -184.605,0.671c1.497,-10.067 2.746,-18.466 3.047,-28.487c-0.949,-1.621 -1.012,-1.558 -0.761,0.473c3.863,2.43 7.878,4.067 11.027,3.042c54.18,-17.637 108.118,-16.21 161.966,1.32Z" style="fill:#dbe1e5;fill-rule:nonzero;"/><path d="M733.345,691.157c2.872,-3.94 5.739,-7.995 8.637,-8.018c69.052,-0.54 138.108,-0.852 207.159,-0.414c5.049,0.032 10.061,6.068 11.962,12.671c-36.426,0 -72.859,-0.415 -109.277,0.118c-35.923,0.525 -71.829,2.177 -107.752,2.813c-3.54,0.063 -7.144,-3.517 -10.729,-7.17Z" style="fill:#dee3e6;fill-rule:nonzero;"/><path d="M970.596,563.429c-9.513,-16.363 -4.541,-29.164 11.075,-37.344c34.631,-18.14 70.363,-20.019 104.485,0.016c8.108,4.76 11.138,18.167 15.373,29.729c-19.762,-4.056 -38.103,-14.04 -57.096,-15.489c-24.853,-1.896 -52.315,-3.329 -69.476,22.247c0.1,-0.026 0.187,-0.215 -1.057,-0.41c-1.93,0.287 -2.617,0.769 -3.304,1.251Z" style="fill:#e7eaeb;fill-rule:nonzero;"/><path d="M967.213,741.018c3.832,-6.548 7.647,-15.25 11.68,-15.352c40.144,-1.019 80.324,-0.618 122.143,-0.618l-0,24.04c-42.696,-0 -84.819,0.097 -126.939,-0.266c-2.284,-0.02 -4.535,-3.889 -6.884,-7.804Z" style="fill:#dbe1e5;fill-rule:nonzero;"/><path d="M723.03,633.941c8.697,14.171 2.48,14.49 -9.639,14.314c-54.538,-0.796 -109.095,-0.347 -165.214,-0.347c-4.512,-10.288 0.031,-15.416 11.621,-15.386c53.904,0.14 107.807,0.512 163.232,1.419Z" style="fill:#dee3e6;fill-rule:nonzero;"/><path d="M644.67,565.452c24.376,3.048 46.998,5.454 69.358,9.36c5.544,0.969 10.239,6.796 13.994,13.228c-60.524,-11.601 -119.571,-12.621 -178.445,2.975c-1.368,-1.467 -2.735,-2.934 -4.103,-4.401c5.04,-4.276 9.653,-11.529 15.193,-12.325c27.248,-3.915 54.744,-6.117 84.003,-8.837Z" style="fill:#dbe1e5;fill-rule:nonzero;"/><path d="M747.288,947.128c-0.552,-26.661 -0.776,-51.536 -1.001,-76.411c-3.202,-0.439 -6.405,-0.878 -9.607,-1.317c-25.227,20.775 -20.091,55.253 -34.26,81.981c-10.073,-28.988 -5.761,-57.931 -3.805,-86.844c2.216,-0.146 4.432,-0.293 6.648,-0.439c1.184,8.392 2.368,16.784 4.096,29.033c5.24,-9.834 7.994,-17.75 13.074,-23.672c4.137,-4.824 11.377,-10.403 16.653,-9.866c5.191,0.528 13.307,7.972 13.802,13.004c2.491,25.342 2.909,50.889 4.054,76.364c-3.108,-0.016 -6.217,-0.031 -9.654,-1.833Z" style="fill:#c6d3db;fill-rule:nonzero;"/><path d="M625.058,659.351c36.196,0.392 70.789,-2.097 103.47,7.216c-0.482,3.124 -0.963,6.247 -1.445,9.371l-178.818,-0c-1.096,-1.413 -2.192,-2.827 -3.288,-4.24c4.642,-3.027 9.081,-8.249 13.962,-8.702c21.279,-1.971 42.688,-2.557 66.119,-3.645Z" style="fill:#cad6dd;fill-rule:nonzero;"/><path d="M1100.17,892.604c1.161,-10.856 2.286,-19.786 3.41,-28.715c2.013,0.03 4.026,0.06 6.039,0.09c0.965,8.384 1.93,16.767 3.209,27.877c5.92,-9.608 9.895,-18.09 15.711,-25.027c8.799,-10.495 20.07,-12.724 26.429,1.421c12.597,28.022 7.062,56.949 4.262,85.508c-2.352,0.027 -4.705,0.055 -7.057,0.082c-0,-8.386 0.145,-16.775 -0.033,-25.157c-0.293,-13.856 0.019,-27.802 -1.592,-41.515c-0.686,-5.842 -5.575,-11.19 -8.554,-16.762c-4.544,4.673 -11.189,8.576 -13.239,14.164c-6.175,16.831 -10.569,34.316 -15.642,51.551c-1.433,4.871 -2.814,9.759 -4.219,14.639c-2.419,-0.104 -4.837,-0.207 -7.256,-0.311c-0.502,-18.639 -1.004,-37.278 -1.468,-57.845Z" style="fill:#c6d3db;fill-rule:nonzero;"/><path d="M502.806,873.93c18.455,-14.513 19.876,-14.173 35.697,9.742c3.341,-5.465 6.322,-10.34 11.326,-15.586c2.884,0.84 3.745,2.051 4.606,3.262c-5.905,24.402 -11.81,48.805 -18.707,77.311c-12.445,-25.072 2.961,-54.325 -23.834,-74.735c-4.944,24.549 -9.888,49.099 -14.833,73.648c-12.627,-29.321 -11.186,-59.084 -2.305,-89.645c0.915,2.802 1.83,5.605 2.362,11.163c-0.383,7.098 -0.383,11.441 -0.383,15.783c0.814,0.04 1.627,0.08 2.44,0.12c1.21,-3.688 2.421,-7.376 3.631,-11.063Z" style="fill:#cdd8de;fill-rule:nonzero;"/><path d="M670.027,612.171c-41.843,1.046 -81.698,2.186 -125.471,3.437c4.682,-4.296 8.054,-10.113 12.395,-10.959c52.823,-10.292 105.851,-11.069 158.719,-0.406c5.01,1.011 9.074,6.712 11.19,14.143c-18.282,-2.041 -36.564,-4.081 -56.833,-6.215Z" style="fill:#cdd8de;fill-rule:nonzero;"/><path d="M633.557,690.301c84.251,-0.022 84.251,-0.022 95.172,14.087l-181.096,0c-0.786,-1.772 -1.572,-3.545 -2.358,-5.318c5.993,-2.318 11.888,-6.296 17.997,-6.658c22.732,-1.348 45.534,-1.507 70.285,-2.111Z" style="fill:#dbe1e5;fill-rule:nonzero;"/><path d="M1102.25,586.057c-0.184,1.511 0.001,1.5 -1.468,0.701c-15.133,-5.469 -28.494,-12.545 -42.522,-14.305c-28.962,-3.634 -58.551,-5.882 -83.441,15.087c0,0 0.173,0.084 0.233,0.013c-13.561,-2.527 -8.189,-11.311 -4.274,-20.309c2.759,-2.525 3.56,-3.698 4.362,-4.871c-0,-0 -0.087,0.189 1.448,0.295c44.604,-15.128 86.801,-19.103 126.454,9.777c-0.202,4.034 -0.405,8.068 -0.792,13.612Z" style="fill:#e3e7e9;fill-rule:nonzero;"/><path d="M387.362,884.496c1.538,-9.685 2.939,-17.499 4.341,-25.312c1.243,0.025 2.487,0.05 3.73,0.075c1.31,24.748 2.62,49.497 3.931,74.245c2.943,0.293 5.887,0.587 8.83,0.88c23.853,-22.177 22.357,-56.422 38.932,-83.369l0,90.656c-1.564,0.098 -3.128,0.197 -4.693,0.295l0,-42.615c-1.218,-0.133 -2.435,-0.265 -3.653,-0.398c-4.869,10.369 -8.572,21.546 -15.014,30.821c-4.319,6.22 -12.869,13.78 -18.884,13.264c-5.342,-0.458 -12.409,-10.593 -14.079,-17.567c-3.017,-12.597 -2.575,-26.023 -3.441,-40.975Z" style="fill:#cdd8de;fill-rule:nonzero;"/><path d="M948.919,946.544c-13.782,-25.826 -12.19,-64.481 4.76,-80.798c5.786,-5.57 18.547,-8.575 26.263,-6.339c10.979,3.181 11.874,13.184 6.686,25.653c-5.533,-5.823 -11.355,-11.95 -17.177,-18.077c-6.122,8.555 -14.407,16.35 -17.753,25.88c-3.276,9.33 -2.651,20.55 -1.546,30.702c0.65,5.968 4.414,14.574 8.92,16.257c4.011,1.497 11.074,-4.725 16.588,-7.891c2.778,-1.596 5.107,-3.972 8.468,-6.657c0.545,21.654 -14.705,30.865 -35.209,21.27Z" style="fill:#cad6dd;fill-rule:nonzero;"/><path d="M1298.32,868.535c-6.412,11.545 -11.062,23.013 -16.869,37.337c10.969,1.197 16.479,1.798 28.132,3.07c-10.914,5.318 -16.505,8.041 -23.491,11.445c0.57,6.114 1.19,12.774 1.916,20.563c11.435,-1.531 21.71,-2.907 31.986,-4.283c0.43,2.587 0.86,5.175 1.29,7.763c-12.5,1.772 -25.485,6.132 -37.244,3.935c-4.2,-0.785 -6.9,-17.321 -7.66,-26.876c-0.979,-12.322 0.052,-24.918 1.325,-37.282c2.79,-27.112 11.561,-31.674 40.639,-18.432c-6.087,0.894 -12.174,1.789 -20.024,2.76Z" style="fill:#cad6dd;fill-rule:nonzero;"/><path d="M1060.61,865.247c-9.159,2.323 -17.312,3.306 -26.176,4.375c-0.861,5.006 -1.841,9.669 -2.432,14.38c-0.932,7.421 -1.602,14.875 -2.512,23.547l18.78,0c0.517,1.381 1.034,2.762 1.551,4.143c-5.93,2.684 -11.86,5.368 -19.154,8.67c0.431,6.095 0.896,12.656 1.465,20.678c12.155,-1.406 22.436,-2.595 32.718,-3.784c0.392,2.085 0.784,4.17 1.176,6.255c-11.405,2.224 -22.787,5.704 -34.229,5.911c-3.444,0.063 -9.791,-8.812 -10.088,-13.87c-1.007,-17.197 -0.419,-34.546 0.51,-51.785c1.404,-26.068 14.526,-32.472 38.391,-18.52Z" style="fill:#d5dee2;fill-rule:nonzero;"/><path d="M1204.01,915.91c4.059,30.379 7.854,31.485 35.809,12.19c1.322,1.481 2.644,2.963 3.966,4.445c-8.594,6.749 -16.531,17.147 -26.032,18.859c-5.576,1.005 -17.838,-10.768 -19.794,-18.613c-5.588,-22.412 -5.428,-46.143 9.861,-65.191c5.075,-6.323 18.745,-11.402 25.669,-8.984c6.807,2.378 10.038,14.992 14.839,23.114c-2.356,1.339 -4.712,2.677 -7.068,4.016c-1.495,-3.085 -3.031,-6.151 -4.478,-9.258c-5.94,-12.754 -16.125,-14.35 -22.261,-1.662c-5.802,12.001 -7.199,26.131 -10.511,41.084Z" style="fill:#cdd8de;fill-rule:nonzero;"/><path d="M1100.17,669.58c-44.812,0.921 -88.247,0.921 -136.014,0.921c4.036,-5.669 6.153,-11.292 8.339,-11.32c41.425,-0.517 82.859,-0.486 124.283,0.047c1.63,0.021 3.182,6.148 3.392,10.352Z" style="fill:#d5dee2;fill-rule:nonzero;"/><path d="M885.001,911.08c-6.273,-9.977 -13.543,-18.212 -16.358,-27.761c-4.535,-15.381 6.629,-22.776 19.372,-26.364c13.207,-3.72 22.375,0.838 25.116,19.259c-4.731,-2.973 -6.88,-5.382 -9.236,-5.606c-7.369,-0.698 -16.481,-3.163 -21.642,0.153c-3.39,2.179 -3.688,14.496 -0.868,19.941c6.606,12.756 16.854,23.592 23.85,36.192c5.793,10.434 6.675,22.724 -7.673,27.205c-14.24,4.447 -22.609,-3.143 -26.024,-17.453c2.675,-0.627 4.11,-1.474 5.13,-1.12c6.843,2.372 13.598,5 20.381,7.546c-1.82,-7.364 -3.326,-14.826 -5.604,-22.045c-1.006,-3.186 -3.579,-5.877 -6.444,-9.947Z" style="fill:#cdd8de;fill-rule:nonzero;"/><path d="M803.49,861.249c11.964,-1.279 22.368,-1.768 32.772,-2.257c0.145,2.185 0.29,4.37 0.435,6.554c-8.799,1.427 -17.597,2.853 -28.412,4.606c-1.526,11.462 -3.127,23.493 -4.93,37.04c8.186,0.462 14.45,0.814 20.715,1.167c0.214,1.155 0.428,2.31 0.642,3.465c-6.341,2.673 -12.683,5.346 -20.281,8.55c0.69,6.439 1.399,13.064 2.25,21.021c11.721,-1.442 22.142,-2.724 32.564,-4.006c0.412,2.146 0.825,4.292 1.237,6.439c-11.348,2.112 -22.645,5.09 -34.079,5.776c-3.173,0.19 -9.795,-6.538 -9.664,-9.89c1.015,-25.92 3.3,-51.79 6.751,-78.465Z" style="fill:#d5dee2;fill-rule:nonzero;"/><path d="M1102.25,608.157c0,0 0.095,-0.099 0.084,-0.173c-0.011,5.8 -0.011,11.674 -0.011,17.432c-22.809,-1.903 -44.951,-5.205 -67.09,-5.193c-22.448,0.011 -44.895,3.295 -68.426,5.235c1.332,-2.79 2.896,-6.07 6.262,-10.731c1.8,-1.382 3.138,-2.246 5.377,-2.127c38.48,0.315 74.723,0.684 110.962,0.477c4.29,-0.025 8.562,-3.203 12.842,-4.92Z" style="fill:#cad6dd;fill-rule:nonzero;"/><path d="M1025.1,701.018c27.327,0.825 52.593,1.65 77.86,2.475c-0.147,2.697 -0.293,5.394 -0.44,8.091l-135.667,0c-0.204,-2.481 -0.408,-4.963 -0.612,-7.445c18.933,-1.041 37.867,-2.081 58.859,-3.121Z" style="fill:#cad6dd;fill-rule:nonzero;"/><path d="M1020.85,688.987c-19.079,0.962 -36.078,1.925 -54.721,2.981c12.085,-17.032 119.688,-18.479 136.537,-2.98c-27.29,0 -53.513,0 -81.816,-0.001Z" style="fill:#d5dee2;fill-rule:nonzero;"/><path d="M982.099,646.096c-6.054,0.494 -10.391,0.743 -16.317,1.084c16.993,-19.666 117.82,-19.997 137.211,-1.329c-40.314,0 -79.746,0 -120.894,0.245Z" style="fill:#d5dee2;fill-rule:nonzero;"/><path d="M634.692,858.478c8.506,-0.143 15.249,-0.143 23.74,-0.143c-20.272,20.854 -20.2,76.609 3.571,87.466c-14.13,3.2 -23.876,5.407 -33.172,7.512c3.633,-30.466 14.631,-59.108 -2.266,-87.495c-0.499,-0.838 4.128,-4.728 8.127,-7.34Z" style="fill:#cad6dd;fill-rule:nonzero;"/><path d="M331.045,923.461c-1.187,20.525 13.264,10.749 22.697,10.079c-0.171,2.199 -0.343,4.399 -0.515,6.598c-8.71,3.333 -17.42,6.666 -29.113,11.141l0,-100.24c2.308,-0.039 4.616,-0.078 6.924,-0.117c-0,23.544 -0,47.089 0.007,72.539Z" style="fill:#c6d3db;fill-rule:nonzero;"/><path d="M1103.4,570.493c-40.01,-26.928 -82.207,-22.953 -126.911,-7.798c15.626,-25.683 43.088,-24.25 67.941,-22.354c18.993,1.449 37.334,11.433 57.337,17.003c1.578,3.321 1.784,7.259 1.633,13.149Z" style="fill:#5689a5;fill-rule:nonzero;"/><path d="M555.6,870.38c-2.026,-0.243 -2.887,-1.454 -4.727,-3.217c12.321,-12.52 24.842,-11.875 28.263,3.863c5.528,25.422 6.432,51.85 9.288,77.853c-3.062,0.384 -6.125,0.767 -9.187,1.151c-1.1,-8.019 -2.466,-16.013 -3.244,-24.063c-1.516,-15.697 -1.76,-31.603 -4.674,-47.018c-0.747,-3.954 -9.486,-6.398 -15.719,-8.569Z" style="fill:#c6d3db;fill-rule:nonzero;"/><path d="M973.9,562.178c0.442,1.368 -0.359,2.541 -2.3,3.695c-1.14,-0.02 -1.15,-1.239 -1.077,-1.841c0.76,-1.085 1.447,-1.567 3.377,-1.854Z" style="fill:#5689a5;fill-rule:nonzero;"/><path d="M536.434,1174.07c-1.984,-31.772 4.949,-59.397 18.842,-81.771c31.243,-1.502 59.838,-2.876 90.325,-4.342c14.897,25.037 10.037,52.781 0.646,79.94c-4.904,14.183 -12.34,27.74 -20.273,40.565c-10.461,16.909 -25.849,28.154 -46.649,24.315c-21.821,-4.027 -33.738,-20.312 -40.495,-40.363c-1.732,-5.14 -1.462,-10.953 -2.396,-18.344Z" style="fill:#2f6f91;fill-rule:nonzero;"/><path d="M619.84,1067.5c-14.994,1.535 -28.367,2.79 -43.663,4.225c12.701,-20.964 35.286,-25.143 49.391,-11.393c0.445,0.434 -2.659,4.509 -5.728,7.168Z" style="fill:#2f6f91;fill-rule:nonzero;"/><path d="M943.136,436.358c-24.141,-3.202 -46.787,-8.658 -69.751,-11.758c-44.876,-6.057 -87.843,1.744 -130.264,21.291c-1.579,-2.06 -2.539,-5.267 -1.484,-6.203c55.577,-49.295 164.39,-44.068 201.499,-3.33Z" style="fill:#2f6f91;fill-rule:nonzero;"/><path d="M953.66,440.125c-3.284,1.249 -7.279,0.967 -11.702,-1.013c3.378,-1.305 7.184,-0.911 11.702,1.013Z" style="fill:#2f6f91;fill-rule:nonzero;"/><path d="M976.459,588.351c23.254,-21.78 52.843,-19.532 81.805,-15.898c14.028,1.76 27.389,8.836 42.538,14.218c-1.647,1.9 -5.355,4.829 -7.827,4.013c-38.195,-12.617 -76.472,-10.161 -116.516,-2.333Z" style="fill:#2f6f91;fill-rule:nonzero;"/><path d="M1100.45,608.153c-2.477,1.721 -6.749,4.899 -11.039,4.924c-36.239,0.207 -72.482,-0.162 -110.631,-0.468c3.355,-3.888 8.158,-9.875 13.954,-11.078c35.775,-7.429 71.301,-6.592 107.716,6.622Z" style="fill:#2f6f91;fill-rule:nonzero;"/><path d="M712.799,498.531c-10.688,-0.858 -21.26,-3.287 -31.834,-5.703c-41.881,-9.57 -82.435,-3.324 -123.66,8.712c42.018,-35.603 112.965,-36.967 155.494,-3.009Z" style="fill:#2f6f91;fill-rule:nonzero;"/><path d="M720.572,502.843c-2.202,0.927 -4.895,0.469 -7.917,-1.48c2.256,-0.962 4.841,-0.433 7.917,1.48Z" style="fill:#2f6f91;fill-rule:nonzero;"/><path d="M722.864,544.137c-55.817,-17.849 -109.755,-19.276 -163.935,-1.639c-3.149,1.025 -7.164,-0.612 -10.975,-3.057c58.436,-31.916 117.294,-32.42 177.845,-2.721c0.656,3.026 -0.155,5.381 -2.935,7.417Z" style="fill:#2f6f91;fill-rule:nonzero;"/><path d="M501.677,872.691c-0.081,4.926 -1.292,8.614 -2.502,12.302c-0.813,-0.04 -1.626,-0.08 -2.44,-0.12c0,-4.342 0,-8.685 0.666,-14.349c1.492,-0.572 2.32,0.179 4.276,2.167Z" style="fill:#2f6f91;fill-rule:nonzero;"/></svg>